<?xml version="1.0" encoding="utf-8"?>
<!-- Generator: Adobe Illustrator 21.1.0, SVG Export Plug-In . SVG Version: 6.00 Build 0)  -->
<svg version="1.1" id="Calque_1" xmlns="http://www.w3.org/2000/svg" xmlns:xlink="http://www.w3.org/1999/xlink" x="0px" y="0px"
	 viewBox="0 0 196 59.9" style="enable-background:new 0 0 196 59.9;" xml:space="preserve">
<style type="text/css">
	.st0{fill:#1DAF8D;}
	.st1{fill:#FFFFFF;}
	.st2{fill:#FDC626;}
	.st3{fill:#19486C;}
	.st4{fill:#6B6766;}
</style>
<g>
	<g>
		<circle class="st0" cx="38.7" cy="30" r="16.3"/>
		<circle class="st1" cx="41.3" cy="30.7" r="10.1"/>
		<circle class="st2" cx="44.8" cy="27.7" r="3.3"/>
		<path class="st3" d="M27.8,33.8h12.3c0,0,0,0,0.1,0v-1.6c0,0,0,0-0.1,0H27.8c-0.4,0-0.8-0.3-0.8-0.8c0-0.4,0.3-0.8,0.8-0.8h12.3
			c0,0,0,0,0,0c0-1-0.8-1.8-1.8-1.8l-10.7-0.4c-0.6-0.1-1.2-0.2-1.8-0.2c-2.6,0-4.9,1.1-6.3,2.7c0,0-1.6,1.8-4.4,1.8
			c-0.1,0-0.2,0-0.3,0v3.3c0.1,0,0.2,0,0.3,0c2.8,0,4.4,1.8,4.4,1.8l0,0c1.1,1.4,2.9,2.3,5,2.6c0.2,0.1,0.4,0.1,0.6,0.1l0.3,0
			c0.1,0,0.3,0,0.4,0c0.3,0,0.7,0,1-0.1l11.6-0.4c1,0,1.8-0.8,1.8-1.8v-0.1c0,0,0,0-0.1,0H27.8c-0.4,0-0.8-0.3-0.8-0.8
			c0-0.4,0.3-0.8,0.8-0.8h12.3c0,0,0,0,0.1,0v-1.6c0,0,0,0-0.1,0H27.8c-0.4,0-0.8-0.3-0.8-0.8S27.4,33.8,27.8,33.8z"/>
	</g>
	<g>
		<g>
			<path class="st4" d="M65.2,41.4c-1.9-1.1-3.3-2.7-4.4-4.7c-1-2-1.6-4.2-1.6-6.7c0-2.5,0.5-4.7,1.6-6.7c1-2,2.5-3.6,4.4-4.7
				c1.9-1.1,3.9-1.7,6.2-1.7c2.3,0,4.4,0.6,6.2,1.7c1.8,1.1,3.3,2.7,4.4,4.7c1.1,2,1.6,4.3,1.6,6.8c0,2.5-0.5,4.7-1.6,6.8
				c-1.1,2-2.5,3.6-4.4,4.7c-1.8,1.1-3.9,1.7-6.2,1.7C69.1,43.2,67,42.6,65.2,41.4z M76.4,39.3c1.5-0.9,2.6-2.2,3.5-3.9
				c0.8-1.6,1.3-3.5,1.3-5.5c0-2-0.4-3.9-1.3-5.5c-0.8-1.6-2-2.9-3.5-3.9c-1.5-0.9-3.1-1.4-5-1.4s-3.5,0.5-5,1.4
				c-1.5,0.9-2.7,2.2-3.5,3.9c-0.9,1.6-1.3,3.5-1.3,5.5c0,2,0.4,3.9,1.3,5.5c0.8,1.6,2,2.9,3.5,3.9c1.5,0.9,3.2,1.4,5,1.4
				S74.9,40.2,76.4,39.3z"/>
			<path class="st4" d="M89.2,17.4h0.3v25.6h-2.4V19.4C87.2,18.3,88.1,17.4,89.2,17.4z"/>
			<path class="st4" d="M96.8,17.4h0.3v25.6h-2.4V19.4C94.8,18.3,95.7,17.4,96.8,17.4z"/>
			<path class="st4" d="M105,41.9c-1.4-0.8-2.4-2-3.2-3.5c-0.8-1.5-1.2-3.2-1.2-5.1c0-1.9,0.4-3.6,1.2-5.1c0.8-1.5,1.8-2.7,3.2-3.5
				c1.4-0.8,2.9-1.3,4.6-1.3c1.5,0,2.8,0.3,4,1c1.2,0.7,2.1,1.6,2.8,2.9l-0.2,0.2c-0.8,0.6-1.9,0.5-2.6-0.2
				c-0.3-0.3-0.7-0.6-1.1-0.8c-0.9-0.5-1.8-0.7-2.9-0.7c-1.3,0-2.4,0.3-3.4,0.9s-1.8,1.5-2.4,2.7c-0.6,1.2-0.8,2.5-0.8,4
				c0,1.5,0.3,2.8,0.8,4s1.3,2,2.4,2.7s2.1,0.9,3.4,0.9c1,0,2-0.2,2.9-0.7c0.4-0.2,0.8-0.5,1.1-0.8c0.7-0.7,1.8-0.8,2.6-0.2l0.2,0.2
				c-0.7,1.3-1.6,2.2-2.8,2.9c-1.2,0.7-2.5,1-4,1C107.9,43.1,106.3,42.7,105,41.9z"/>
			<path class="st4" d="M122,41.8c-1.3-0.9-2.4-2-3.2-3.5c-0.8-1.5-1.2-3.2-1.2-5.1c0-1.9,0.4-3.6,1.2-5.1c0.8-1.5,1.8-2.7,3.2-3.5
				c1.3-0.8,2.9-1.3,4.5-1.3c1.7,0,3.2,0.4,4.5,1.3c1.3,0.8,2.4,2,3.2,3.5c0.8,1.5,1.1,3.2,1.1,5.1c0,1.9-0.4,3.6-1.1,5.1
				c-0.8,1.5-1.8,2.7-3.2,3.5c-1.3,0.9-2.9,1.3-4.5,1.3C124.8,43.1,123.3,42.7,122,41.8z M129.9,39.8c1-0.6,1.7-1.5,2.3-2.7
				c0.6-1.2,0.8-2.5,0.8-4c0-1.5-0.3-2.8-0.8-4c-0.6-1.2-1.3-2.1-2.3-2.7c-1-0.6-2.1-0.9-3.3-0.9c-1.2,0-2.3,0.3-3.3,0.9
				c-1,0.6-1.8,1.5-2.3,2.7c-0.6,1.2-0.8,2.5-0.8,4c0,1.5,0.3,2.8,0.8,4c0.6,1.2,1.3,2.1,2.3,2.7c1,0.6,2.1,0.9,3.3,0.9
				C127.8,40.8,128.9,40.5,129.9,39.8z"/>
			<path class="st4" d="M141.4,41.8c-1.3-0.9-2.4-2-3.2-3.5c-0.8-1.5-1.2-3.2-1.2-5.1c0-1.9,0.4-3.6,1.2-5.1
				c0.8-1.5,1.8-2.7,3.2-3.5c1.3-0.8,2.9-1.3,4.5-1.3c1.7,0,3.2,0.4,4.5,1.3c1.3,0.8,2.4,2,3.2,3.5c0.8,1.5,1.1,3.2,1.1,5.1
				c0,1.9-0.4,3.6-1.1,5.1c-0.8,1.5-1.8,2.7-3.2,3.5c-1.3,0.9-2.9,1.3-4.5,1.3C144.3,43.1,142.8,42.7,141.4,41.8z M149.3,39.8
				c1-0.6,1.7-1.5,2.3-2.7c0.6-1.2,0.8-2.5,0.8-4c0-1.5-0.3-2.8-0.8-4c-0.6-1.2-1.3-2.1-2.3-2.7c-1-0.6-2.1-0.9-3.3-0.9
				c-1.2,0-2.3,0.3-3.3,0.9c-1,0.6-1.8,1.5-2.3,2.7c-0.6,1.2-0.8,2.5-0.8,4c0,1.5,0.3,2.8,0.8,4c0.6,1.2,1.3,2.1,2.3,2.7
				c1,0.6,2.1,0.9,3.3,0.9C147.2,40.8,148.3,40.5,149.3,39.8z"/>
			<path class="st4" d="M164.7,33.2l-4.1,4.2v5.6h-2.4V19.3c0-1.1,0.9-2,2-2h0.3v16.8l9.8-10c0.4-0.4,0.9-0.6,1.4-0.6h2.1l-7.4,8
				l8.1,11.5h-1.8c-0.6,0-1.3-0.3-1.6-0.8L164.7,33.2z"/>
		</g>
		<circle class="st2" cx="179.9" cy="41.8" r="1.3"/>
	</g>
</g>
</svg>
